<svg width="514" height="514" viewBox="0 0 514 514" fill="none" xmlns="http://www.w3.org/2000/svg">
<path d="M0.780487 76.9647C0.690653 35.5434 34.1964 1.89202 75.6177 1.80218L437.617 1.01708C479.038 0.92725 512.689 34.433 512.779 75.8543L513.564 437.853C513.654 479.275 480.148 512.926 438.727 513.016L76.7281 513.801C35.3068 513.891 1.65542 480.385 1.56559 438.964L0.780487 76.9647Z" fill="#E0322C"/>
<path d="M250.781 432.764C238.581 432.764 224.857 431.239 209.607 428.189C194.793 425.575 180.197 421.654 165.819 416.425C151.877 410.761 140.331 404.226 131.181 396.819C122.031 389.412 117.456 380.915 117.456 371.33C117.456 366.973 118.328 362.18 120.07 356.952C122.249 351.288 125.081 345.188 128.567 338.652C132.052 332.117 136.409 325.146 141.638 317.739C144.688 313.382 148.173 310.114 152.095 307.935C156.452 305.757 161.462 304.668 167.126 304.668C174.969 304.668 182.594 306.41 190.001 309.896C197.408 312.946 204.814 316.649 212.221 321.006C219.628 324.928 227.253 328.631 235.096 332.117C243.374 335.167 252.088 336.692 261.238 336.692C269.516 336.692 275.616 335.82 279.537 334.077C283.894 332.335 286.073 329.72 286.073 326.235C286.073 322.749 284.548 319.917 281.498 317.739C278.884 315.56 274.963 313.817 269.734 312.51C264.941 310.767 259.277 309.242 252.742 307.935C246.206 306.628 239.235 305.103 231.828 303.361C224.421 301.618 216.796 299.439 208.954 296.825C198.933 293.775 189.129 289.854 179.544 285.061C169.958 279.833 161.244 273.079 153.402 264.801C145.995 256.523 139.895 246.501 135.102 234.737C130.745 222.973 128.567 208.595 128.567 191.603C128.567 168.946 133.795 149.993 144.252 134.744C154.709 119.494 170.176 107.948 190.654 100.105C211.132 92.2629 236.403 88.3416 266.466 88.3416C273.873 88.3416 281.28 88.7773 288.687 89.6487C296.094 90.5201 303.501 91.8272 310.908 93.5699C318.751 95.3128 326.375 97.7092 333.782 100.759C341.625 103.373 349.468 106.423 357.31 109.909C373.431 116.88 381.71 126.683 382.145 139.319C382.581 151.518 378.006 164.372 368.421 177.878C363.192 186.157 357.746 192.474 352.082 196.831C346.853 200.753 341.407 202.713 335.743 202.713C328.772 202.713 321.147 200.753 312.869 196.831C304.59 192.91 295.876 188.989 286.726 185.067C277.577 181.146 268.427 179.185 259.277 179.185C254.049 179.185 249.474 179.839 245.553 181.146C242.067 182.017 239.453 183.542 237.71 185.721C235.967 187.464 235.096 189.642 235.096 192.256C235.096 197.049 236.621 200.971 239.671 204.02C243.156 206.635 247.513 208.813 252.742 210.556C258.406 212.299 264.724 213.824 271.695 215.131C279.102 216.438 286.944 217.745 295.223 219.052C306.551 220.795 318.097 223.627 329.861 227.548C342.061 231.034 353.171 236.262 363.192 243.234C373.213 250.205 381.274 259.79 387.374 271.99C393.473 284.19 396.523 300.093 396.523 319.699C396.523 356.734 384.106 384.837 359.271 404.008C334.872 423.179 298.708 432.764 250.781 432.764Z" fill="#FFF7ED"/>
</svg>
